<?xml version="1.0" encoding="utf-8"?>
<svg id="master-artboard" viewBox="0 0 760.1024780273438 797.7775268554688" version="1.1" xmlns="http://www.w3.org/2000/svg" x="0px" y="0px" style="enable-background:new 0 0 1400 980;" width="760.1024780273438px" height="797.7775268554688px"><rect id="ee-background" x="0" y="0" width="760.1024780273438" height="797.7775268554688" style="fill: white; fill-opacity: 0; pointer-events: none;"/><defs><style id="ee-google-fonts">@import url(https://fonts.googleapis.com/css?family=Fjalla+One:400|Roboto:100,100italic,300,300italic,400,400italic,500,500italic,700,700italic,900,900italic);</style></defs>











































<g transform="matrix(1, 0, 0, 1, -317.829927444458, -110.18104553222656)">
		<path class="st13" d="M448.4,599.9" style="fill: rgb(223, 243, 251);"/>
	</g>





















































<g transform="matrix(3.9200000762939453, 0, 0, 3.9200000762939453, -107.82991218566895, -110.18104553222656)"><g>
	<path d="M 125 30 L 125 30 L 125 30 L 31.899999618530273 63.20000076293945 L 46.099998474121094 186.3000030517578 L 125 230 L 125 230 L 125 230 L 203.89999389648438 186.3000030517578 L 218.10000610351562 63.20000076293945 Z" class="st0" style="fill: rgb(234, 137, 23);"/>
	<path d="M 125 30 L 125 52.20000076293945 L 125 52.099998474121094 L 125 153.39999389648438 L 125 153.39999389648438 L 125 230 L 125 230 L 203.89999389648438 186.3000030517578 L 218.10000610351562 63.20000076293945 L 125 30 Z" class="st1" style="fill: rgb(235, 121, 0);"/>
	
</g></g><g transform="matrix(0.011233760975301266, -8.844766616821289, 8.844766616821289, 0.011233760975301266, -1525.1796894073486, 3029.077880859375)"><g id="g-1" transform="matrix(1, 0, 0, 1, 0, 0)">
	<path class="st15" d="M326.6,214.6l-20.5-16.5c-1.5-1.2-2.8-0.6-2.8,1.3v7.6h-27c-2,0-3.6,1.3-3.6,2.9v13.8c0,1.6,1.6,2.9,3.6,2.9&#10;&#9;&#9;h27v7.5c0,2,1.3,2.6,2.8,1.3l20.5-16.5C328.1,217.8,328.1,215.8,326.6,214.6z" style="fill: rgb(254, 255, 237); opacity: 1; stroke: rgb(227, 106, 0); stroke-width: 3; paint-order: stroke;"/>
</g></g><g transform="matrix(0.012500016018748283, -9.841715812683105, 9.841715812683105, 0.012500016018748283, -1751.8082294464111, 3331.888916015625)"><g id="g-2" transform="matrix(1, 0, 0, 1, 0, 0)">
	<path class="st15" d="M326.6,214.6l-20.5-16.5c-1.5-1.2-2.8-0.6-2.8,1.3v7.6h-27c-2,0-3.6,1.3-3.6,2.9v13.8c0,1.6,1.6,2.9,3.6,2.9&#10;&#9;&#9;h27v7.5c0,2,1.3,2.6,2.8,1.3l20.5-16.5C328.1,217.8,328.1,215.8,326.6,214.6z" style="fill: rgb(254, 255, 237); opacity: 1;"/>
</g></g></svg>